<?xml version="1.0" standalone="no"?>
<!DOCTYPE svg PUBLIC "-//W3C//DTD SVG 20010904//EN"
 "http://www.w3.org/TR/2001/REC-SVG-20010904/DTD/svg10.dtd">
<svg version="1.0" xmlns="http://www.w3.org/2000/svg"
 width="1024.000000pt" height="1024.000000pt" viewBox="0 0 1024.000000 1024.000000"
 preserveAspectRatio="xMidYMid meet">

<g transform="translate(0.000000,1024.000000) scale(0.100000,-0.100000)"
fill="#C50034" stroke="none">
<path d="M6841 7444 c-18 -15 -33 -39 -37 -59 -7 -38 5 -63 121 -250 312 -503
552 -1086 650 -1580 31 -158 36 -172 65 -197 24 -22 40 -28 76 -28 44 0 48 3
175 121 71 67 131 120 133 118 2 -2 25 -47 51 -99 263 -526 260 -1081 -10
-1496 -75 -117 -240 -280 -365 -363 -377 -250 -941 -409 -1630 -460 -211 -16
-1724 -25 -1995 -12 -409 20 -621 42 -865 91 -530 107 -873 334 -1000 663 -64
165 -75 230 -74 467 0 155 5 246 17 325 77 484 268 879 586 1208 361 374 824
608 1331 672 164 21 480 16 660 -10 305 -45 638 -163 851 -303 l76 -50 6 -54
c7 -61 43 -172 77 -238 34 -67 138 -199 174 -221 67 -41 151 -10 176 65 13 41
4 67 -45 126 -111 133 -161 329 -119 471 52 177 300 233 422 95 66 -76 90
-241 57 -400 -11 -53 -12 -81 -5 -100 10 -27 64 -66 91 -66 10 0 59 -21 110
-47 77 -38 110 -62 185 -137 51 -51 112 -125 140 -170 240 -383 457 -661 584
-749 l25 -17 -20 -38 c-26 -48 -87 -78 -202 -99 -74 -14 -186 -17 -713 -18
-556 -1 -632 -3 -685 -19 -94 -26 -161 -63 -204 -112 -62 -70 -84 -126 -89
-225 -5 -105 12 -174 64 -249 l36 -52 -44 7 c-131 21 -247 84 -354 190 -153
152 -253 355 -284 580 -11 80 -16 93 -45 122 -25 25 -42 33 -69 33 -49 0 -92
-23 -111 -60 -37 -71 -5 -257 79 -461 6 -13 -12 -18 -116 -32 -230 -32 -591
-47 -612 -26 -3 3 1 30 9 61 77 293 -4 608 -214 831 -224 237 -526 344 -833
293 -162 -27 -304 -90 -334 -148 -35 -67 10 -160 82 -174 25 -5 54 3 116 29
113 48 185 60 320 55 87 -4 130 -11 186 -31 204 -72 362 -231 428 -433 26 -80
29 -102 28 -214 0 -114 -3 -133 -34 -223 -72 -213 -198 -337 -393 -386 -55
-15 -130 -21 -288 -27 -225 -7 -253 -13 -283 -56 -23 -33 -20 -100 5 -132 48
-61 29 -60 641 -53 614 7 610 7 648 69 26 43 25 77 -3 119 -31 46 -80 61 -185
57 -45 -2 -82 -2 -82 0 0 1 16 26 35 56 l36 53 239 6 c256 7 488 28 638 56
l92 18 41 -53 c122 -158 312 -292 491 -345 66 -20 101 -23 355 -27 l283 -4 29
30 c63 62 46 178 -39 262 -48 49 -91 68 -190 84 -50 8 -107 59 -121 107 -24
79 18 146 105 170 28 8 243 12 686 13 620 2 649 3 740 24 228 51 363 167 401
343 17 80 2 117 -74 178 -163 129 -361 364 -511 608 -44 70 -100 157 -125 193
-98 139 -237 263 -368 329 l-63 31 0 119 c0 260 -92 437 -274 526 -223 110
-506 35 -637 -168 -21 -32 -39 -62 -41 -68 -2 -5 -77 28 -168 73 -190 95 -315
143 -502 193 -228 60 -379 79 -648 79 -240 0 -344 -8 -525 -45 -810 -163
-1512 -747 -1803 -1502 -179 -463 -225 -998 -118 -1367 128 -440 488 -734
1084 -884 280 -70 570 -106 1022 -127 310 -14 1931 -6 2105 10 608 57 1021
160 1410 351 241 118 396 229 552 394 145 153 246 322 313 525 50 150 69 261
77 441 13 332 -54 626 -219 963 -71 145 -78 163 -63 173 9 7 68 29 129 49 131
42 156 61 156 123 0 46 1 45 -244 327 -425 491 -745 796 -1171 1116 -123 93
-134 99 -184 99 -28 0 -48 -7 -70 -26z m703 -769 c66 -61 178 -173 249 -250
121 -130 348 -396 355 -414 1 -5 -12 -14 -29 -21 -18 -8 -98 -76 -178 -151
-80 -76 -147 -137 -148 -135 -2 1 -21 65 -42 142 -87 305 -188 573 -313 827
-43 87 -78 161 -78 165 0 3 15 -8 33 -24 17 -16 86 -79 151 -139z"/>
<path d="M6469 5367 c-94 -63 -93 -219 3 -277 47 -29 134 -27 178 3 98 65 99
222 2 280 -45 26 -140 23 -183 -6z"/>
</g>
</svg>
